# xmcd
#
# Track frame offsets:
#	150
#	14315
#	30441
#	46508
#	62542
#	78147
#	97374
#	112587
#	126340
#	142758
#	160439
#	175703
#	190122
#
# Disc length: 2722 seconds
#
# Revision: 1
# Processed by: cddbd v1.5.2PL0 Copyright (c) Steve Scherf et al.
# Submitted via: audiograbber 1.83.01
#
DISCID=940aa00d
DTITLE=Nockalm Quintett - Du warst der geilste Fehler meines Lebens
DYEAR=1900
DGENRE=Pop-Folk
TTITLE0=Du warst der geilste Fehler meines Lebens
TTITLE1=Das kleine Haus am Meer
TTITLE2=Torero der Liebe
TTITLE3=Zwei Koffer im Flur
TTITLE4=Wenn es für uns kein Morgen gibt
TTITLE5=Mein letzter Atemzug
TTITLE6=Jede Stunde war es wert
TTITLE7=Schwindelfrei
TTITLE8=Ich fühle es wie du
TTITLE9=Ein Pirat hat keine Heimat
TTITLE10=Ohne dich wär ich verlorn
TTITLE11=Sag, er soll nie wieder kommen
TTITLE12=Ich gehör dir nicht
EXTD=
EXTT0=
EXTT1=
EXTT2=
EXTT3=
EXTT4=
EXTT5=
EXTT6=
EXTT7=
EXTT8=
EXTT9=
EXTT10=
EXTT11=
EXTT12=
PLAYORDER=
